g arrow01
v -0.009999999 -0.1465798 -0.01
v -0.01 -0.1465798 0.009999999
v -0.01 -0.5036742 -0.01
v -0.01 -0.5036742 0.01
v 0.01 -0.1465798 -0.009999999
v 0.01 -0.5036742 -0.01
v 0.01 -0.5036742 0.01
v 0.01 -0.1465798 0.01
v 0.01 -0.5036742 0.01
v -0.01 -0.1465798 0.009999999
v 0.01 -0.1465798 0.01
v -0.01 -0.5036742 0.01
v 0.01 -0.5036742 -0.01
v -0.01 -0.5036742 0.01
v 0.01 -0.5036742 0.01
v -0.01 -0.5036742 -0.01
v 0.01 -0.5036742 -0.01
v 0.01 -0.1465798 -0.009999999
v -0.009999999 -0.1465798 -0.01
v -0.01 -0.5036742 -0.01
v -0.01 -0.1465798 0.009999999
v -0.009999999 -0.1465798 -0.01
v -0.03288855 -0.1405125 -0.03288854
v -0.03288855 -0.1405125 0.03288854
v 0.01 -0.1465798 0.01
v -0.01 -0.1465798 0.009999999
v -0.03288855 -0.1405125 0.03288854
v 0.03288855 -0.1405125 0.03288854
v 0.03288855 -0.1405125 0.03288854
v 0.03288855 -0.1405125 -0.03288855
v 0.01 -0.1465798 -0.009999999
v 0.01 -0.1465798 0.01
v 0.03288855 -0.1405125 -0.03288855
v -0.03288855 -0.1405125 -0.03288854
v -0.009999999 -0.1465798 -0.01
v 0.01 -0.1465798 -0.009999999
v -0.03288855 -0.1405125 -0.03288854
v -5.960464E-10 0.002393112 6.123233E-19
v -0.03288855 -0.1405125 0.03288854
v -0.03288855 -0.1405125 0.03288854
v -5.960464E-10 0.002393112 6.123233E-19
v 0.03288855 -0.1405125 0.03288854
v 0.03288855 -0.1405125 0.03288854
v -5.960464E-10 0.002393112 6.123233E-19
v 0.03288855 -0.1405125 -0.03288855
v 0.03288855 -0.1405125 -0.03288855
v -5.960464E-10 0.002393112 6.123233E-19
v -0.03288855 -0.1405125 -0.03288854
vt 1 1
vt 1 0
vt 0 1
vt 0 0
vt 0 1
vt 1 1
vt 1 0
vt 0 0
vt 1 1
vt 0 0
vt 0 1
vt 1 0
vt 1 1
vt 0 0
vt 0 1
vt 1 0
vt 0 1
vt 1 1
vt 1 0
vt 0 0
vt 1 0
vt 1 1
vt 0 0
vt 1 0
vt 0 1
vt 0 0
vt 1 0
vt 1 1
vt 1 1
vt 0 1
vt 0 1
vt 0 0
vt 0 1
vt 0 0
vt 1 0
vt 1 1
vt 0 0
vt 0.5 0.5
vt 1 0
vt 1 0
vt 0.5 0.5
vt 1 1
vt 1 1
vt 0.5 0.5
vt 0 1
vt 0 1
vt 0.5 0.5
vt 0 0
vn -1 0 0
vn -1 0 0
vn -1 0 0
vn -1 0 0
vn 1 0 0
vn 1 0 0
vn 1 0 0
vn 1 0 0
vn 0 0 1
vn 0 0 1
vn 0 0 1
vn 0 0 1
vn 0 -1 0
vn 0 -1 0
vn 0 -1 0
vn 0 -1 0
vn 0 0 -1
vn 0 0 -1
vn 0 0 -1
vn 0 0 -1
vn -0.2562312 -0.9666156 0
vn -0.2562312 -0.9666156 0
vn -0.2562312 -0.9666156 0
vn -0.2562312 -0.9666156 0
vn 0 -0.9666154 0.2562312
vn 0 -0.9666154 0.2562312
vn 0 -0.9666154 0.2562312
vn 0 -0.9666154 0.2562312
vn 0.2562313 -0.9666156 0
vn 0.2562313 -0.9666156 0
vn 0.2562312 -0.9666156 0
vn 0.2562312 -0.9666156 0
vn 0 -0.9666156 -0.2562312
vn 0 -0.9666156 -0.2562312
vn 0 -0.9666156 -0.2562312
vn 0 -0.9666156 -0.2562312
vn -0.974525 0.2242788 0
vn -0.974525 0.2242788 0
vn -0.974525 0.2242788 0
vn 0 0.2242788 0.974525
vn 0 0.2242788 0.974525
vn 0 0.2242788 0.974525
vn 0.974525 0.2242788 0
vn 0.974525 0.2242788 0
vn 0.974525 0.2242788 0
vn 0 0.2242788 -0.974525
vn 0 0.2242788 -0.974525
vn 0 0.2242788 -0.974525
f 3/3/3 2/2/2 1/1/1
f 2/2/2 3/3/3 4/4/4
f 7/7/7 6/6/6 5/5/5
f 5/5/5 8/8/8 7/7/7
f 11/11/11 10/10/10 9/9/9
f 10/10/10 12/12/12 9/9/9
f 15/15/15 14/14/14 13/13/13
f 14/14/14 16/16/16 13/13/13
f 19/19/19 18/18/18 17/17/17
f 17/17/17 20/20/20 19/19/19
f 23/23/23 22/22/22 21/21/21
f 21/21/21 24/24/24 23/23/23
f 27/27/27 26/26/26 25/25/25
f 25/25/25 28/28/28 27/27/27
f 31/31/31 30/30/30 29/29/29
f 29/29/29 32/32/32 31/31/31
f 35/35/35 34/34/34 33/33/33
f 33/33/33 36/36/36 35/35/35
f 39/39/39 38/38/38 37/37/37
f 42/42/42 41/41/41 40/40/40
f 45/45/45 44/44/44 43/43/43
f 48/48/48 47/47/47 46/46/46
