g daliandao
v -0.03 0.7309527 -0.01899115
v 0.03 0.7309527 0.018991
v -0.03 0.7309527 0.018991
v 0.03 0.7309527 -0.01899115
v -0.01 -0.1204008 -0.01000008
v 0.01 -0.1204008 0.009999919
v 0.01 -0.1204008 -0.01000008
v -0.01 -0.1204008 0.009999919
v -0.01 0.6795992 -0.01000008
v 0.01 -0.1204008 -0.01000008
v 0.01 0.6795992 -0.01000008
v -0.01 -0.1204008 -0.01000008
v 0.01 0.6795992 -0.01000008
v 0.01 -0.1204008 0.009999919
v 0.01 0.6795992 0.009999919
v 0.01 -0.1204008 -0.01000008
v 0.01 0.6795992 0.009999919
v -0.01 -0.1204008 0.009999919
v -0.01 0.6795992 0.009999919
v 0.01 -0.1204008 0.009999919
v -0.01 0.6795992 0.009999919
v -0.01 -0.1204008 -0.01000008
v -0.01 0.6795992 -0.01000008
v -0.01 -0.1204008 0.009999919
v -0.01 0.6795992 0.009999919
v 0.03 0.7309527 0.018991
v 0.01 0.6795992 0.009999919
v -0.03 0.7309527 0.018991
v 0.1683602 0.6259533 0.000740051
v 0.1610009 0.6725456 -0.007460508
v 0.1683602 0.6259533 -0.0007401935
v 0.1610009 0.6725456 0.007460367
v 0.01 0.6795992 -0.01000008
v -0.03 0.7309527 -0.01899115
v -0.01 0.6795992 -0.01000008
v 0.03 0.7309527 -0.01899115
v 0.01 0.6795992 -0.01000008
v 0.04895599 0.678469 0.007327721
v 0.04895599 0.678469 -0.007327884
v 0.01 0.6795992 0.009999919
v 0.01 0.6795992 -0.01000008
v 0.05615303 0.7743834 -0.02392426
v 0.03 0.7309527 -0.01899115
v 0.05615303 0.7743834 -0.02392426
v 0.01 0.6795992 -0.01000008
v 0.04895599 0.678469 -0.007327884
v 0.03 0.7309527 0.018991
v 0.05615303 0.7743834 -0.02392426
v 0.05615303 0.7743834 0.02392409
v 0.03 0.7309527 -0.01899115
v 0.01 0.6795992 0.009999919
v 0.05615303 0.7743834 0.02392409
v 0.04895599 0.678469 0.007327721
v 0.05615303 0.7743834 0.02392409
v 0.01 0.6795992 0.009999919
v 0.03 0.7309527 0.018991
v -0.01 0.6795992 0.009999919
v -0.04895599 0.6868652 -0.007327885
v -0.04895599 0.6868652 0.007327721
v -0.01 0.6795992 -0.01000008
v -0.04895599 0.6868652 0.007327721
v -0.03 0.7309527 0.018991
v -0.01 0.6795992 0.009999919
v -0.03 0.7309527 0.018991
v -0.04895599 0.6868652 0.007327721
v -0.06113481 0.842046 0.02392408
v -0.03 0.7309527 -0.01899115
v -0.06113481 0.842046 0.02392408
v -0.06113481 0.842046 -0.02392427
v -0.03 0.7309527 0.018991
v -0.04895599 0.6868652 -0.007327885
v -0.03 0.7309527 -0.01899115
v -0.06113481 0.842046 -0.02392427
v -0.03 0.7309527 -0.01899115
v -0.04895599 0.6868652 -0.007327885
v -0.01 0.6795992 -0.01000008
v 0.1007348 0.6663097 -0.003645069
v 0.04895599 0.678469 0.007327721
v 0.1007348 0.6663097 0.003644907
v 0.04895599 0.678469 -0.007327884
v 0.1217006 0.7295326 -0.01784842
v 0.04895599 0.678469 -0.007327884
v 0.1007348 0.6663097 -0.003645069
v 0.04895599 0.678469 -0.007327884
v 0.1217006 0.7295326 -0.01784842
v 0.05615303 0.7743834 -0.02392426
v 0.1007348 0.6663097 -0.003645069
v 0.1610009 0.6725456 -0.007460508
v 0.1217006 0.7295326 0.01784827
v 0.05615303 0.7743834 -0.02392426
v 0.1217006 0.7295326 -0.01784842
v 0.05615303 0.7743834 0.02392409
v 0.04895599 0.678469 0.007327721
v 0.1217006 0.7295326 0.01784827
v 0.1007348 0.6663097 0.003644907
v 0.1217006 0.7295326 0.01784827
v 0.04895599 0.678469 0.007327721
v 0.05615303 0.7743834 0.02392409
v -0.04895599 0.6868652 -0.007327885
v -0.2075223 0.6804256 0.003302233
v -0.04895599 0.6868652 0.007327721
v -0.2075223 0.6804256 -0.003302401
v -0.04895599 0.6868652 0.007327721
v -0.2530386 0.7915167 0.01471311
v -0.06113481 0.842046 0.02392408
v -0.2075223 0.6804256 0.003302233
v -0.06113481 0.842046 0.02392408
v -0.2530386 0.7915167 -0.0147133
v -0.06113481 0.842046 -0.02392427
v -0.2530386 0.7915167 0.01471311
v -0.04895599 0.6868652 -0.007327885
v -0.2530386 0.7915167 -0.0147133
v -0.2075223 0.6804256 -0.003302401
v -0.06113481 0.842046 -0.02392427
v -0.2075223 0.6804256 -0.003302401
v -0.3843162 0.6119807 0.001120401
v -0.2075223 0.6804256 0.003302233
v -0.3843162 0.6119807 -0.001120554
v -0.2075223 0.6804256 0.003302233
v -0.4278218 0.653459 0.008340218
v -0.2530386 0.7915167 0.01471311
v -0.4278218 0.653459 0.008340218
v -0.2075223 0.6804256 0.003302233
v -0.3843162 0.6119807 0.001120401
v -0.2530386 0.7915167 0.01471311
v -0.4278218 0.653459 -0.008340367
v -0.2530386 0.7915167 -0.0147133
v -0.4278218 0.653459 0.008340218
v -0.2530386 0.7915167 -0.0147133
v -0.3843162 0.6119807 -0.001120554
v -0.2075223 0.6804256 -0.003302401
v -0.4278218 0.653459 -0.008340367
v -0.3843162 0.6119807 -0.001120554
v -0.4628644 0.4867212 0.0005678685
v -0.3843162 0.6119807 0.001120401
v -0.4628644 0.4867212 -0.0005679866
v -0.3843162 0.6119807 0.001120401
v -0.5054246 0.4766117 0.005724664
v -0.4278218 0.653459 0.008340218
v -0.5054246 0.4766117 0.005724664
v -0.3843162 0.6119807 0.001120401
v -0.4628644 0.4867212 0.0005678685
v -0.4278218 0.653459 0.008340218
v -0.5054246 0.4766117 -0.005724762
v -0.4278218 0.653459 -0.008340367
v -0.5054246 0.4766117 0.005724664
v -0.4278218 0.653459 -0.008340367
v -0.4628644 0.4867212 -0.0005679866
v -0.3843162 0.6119807 -0.001120554
v -0.5054246 0.4766117 -0.005724762
v 0.1007348 0.6663097 0.003644907
v 0.1683602 0.6259533 -0.0007401935
v 0.1007348 0.6663097 -0.003645069
v 0.1683602 0.6259533 0.000740051
v 0.1610009 0.6725456 -0.007460508
v 0.1007348 0.6663097 -0.003645069
v 0.1683602 0.6259533 -0.0007401935
v 0.1217006 0.7295326 -0.01784842
v 0.1610009 0.6725456 0.007460367
v 0.1217006 0.7295326 0.01784827
v 0.1610009 0.6725456 -0.007460508
v 0.1217006 0.7295326 0.01784827
v 0.1683602 0.6259533 0.000740051
v 0.1007348 0.6663097 0.003644907
v 0.1683602 0.6259533 0.000740051
v 0.1217006 0.7295326 0.01784827
v 0.1610009 0.6725456 0.007460367
v -0.4628644 0.4867212 -0.0005679866
v -0.4997581 0.3182232 -3.37406E-08
v -0.4628644 0.4867212 0.0005678685
v -0.4997581 0.3182232 -3.37406E-08
v -0.5054246 0.4766117 0.005724664
v -0.4628644 0.4867212 0.0005678685
v -0.5054246 0.4766117 0.005724664
v -0.4997581 0.3182232 -3.37406E-08
v -0.5091504 0.3104469 -2.766837E-08
v -0.5054246 0.4766117 0.005724664
v -0.5091504 0.3104469 -2.766837E-08
v -0.5054246 0.4766117 -0.005724762
v -0.5054246 0.4766117 -0.005724762
v -0.4997581 0.3182232 -3.37406E-08
v -0.4628644 0.4867212 -0.0005679866
v -0.4997581 0.3182232 -3.37406E-08
v -0.5054246 0.4766117 -0.005724762
v -0.5091504 0.3104469 -2.766837E-08
vt 0.2146371 0.8775342
vt 0.2541716 0.8525074
vt 0.2146371 0.8525074
vt 0.2541716 0.8775342
vt 0.3308944 0.9848218
vt 0.3440726 0.998
vt 0.3440726 0.9848218
vt 0.3308944 0.998
vt 0.09316573 0.1348702
vt 0.6034418 0.002
vt 0.09016477 0.1220382
vt 0.6064428 0.01483193
vt 0.5291267 0.9047922
vt 0.002 0.9179704
vt 0.5291267 0.9179704
vt 0.002 0.9047922
vt 0.5219225 0.5318018
vt 0.002 0.4439567
vt 0.519403 0.5447369
vt 0.004519493 0.4310216
vt 0.852161 0.8584318
vt 0.3250344 0.8716099
vt 0.852161 0.8716099
vt 0.3250344 0.8584318
vt 0.519403 0.5447369
vt 0.5576552 0.525336
vt 0.5219225 0.5318018
vt 0.5500966 0.5641413
vt 0.484706 0.911869
vt 0.5177117 0.9064655
vt 0.484706 0.9108936
vt 0.5177117 0.9162971
vt 0.09016477 0.1220382
vt 0.06321843 0.1554076
vt 0.09316573 0.1348702
vt 0.05421557 0.1169118
vt 0.3440726 0.9848218
vt 0.3697411 0.9962392
vt 0.3697411 0.9865825
vt 0.3440726 0.998
vt 0.09016477 0.1220382
vt 0.02242635 0.1066488
vt 0.05421557 0.1169118
vt 0.02242635 0.1066488
vt 0.09016477 0.1220382
vt 0.08504462 0.09687464
vt 0.8859983 0.8525074
vt 0.9146152 0.8807846
vt 0.9146152 0.849257
vt 0.8859984 0.8775342
vt 0.5219225 0.5318018
vt 0.5890388 0.5138926
vt 0.5260991 0.5064645
vt 0.5890388 0.5138926
vt 0.5219225 0.5318018
vt 0.5576552 0.525336
vt 0.3308944 0.998
vt 0.305226 0.9865825
vt 0.305226 0.9962392
vt 0.3308944 0.9848218
vt 0.5137646 0.5697894
vt 0.5500966 0.5641413
vt 0.519403 0.5447369
vt 0.5500966 0.5641413
vt 0.5137646 0.5697894
vt 0.6125942 0.5972151
vt 0.562964 0.8988678
vt 0.6306321 0.9271451
vt 0.6306321 0.8956175
vt 0.562964 0.9238946
vt 0.09973611 0.1596946
vt 0.06321843 0.1554076
vt 0.002 0.1907931
vt 0.06321843 0.1554076
vt 0.09973611 0.1596946
vt 0.09316573 0.1348702
vt 0.3994662 0.9890091
vt 0.3697411 0.9962392
vt 0.3994662 0.9938126
vt 0.3697411 0.9865825
vt 0.04013444 0.06266309
vt 0.08504462 0.09687464
vt 0.08384398 0.0666282
vt 0.08504462 0.09687464
vt 0.04013444 0.06266309
vt 0.02242635 0.1066488
vt 0.08384398 0.0666282
vt 0.0803624 0.02999687
vt 0.3102016 0.8532603
vt 0.271404 0.8807846
vt 0.3102016 0.8767813
vt 0.271404 0.8492569
vt 0.5260991 0.5064645
vt 0.5696999 0.4705991
vt 0.526169 0.4761944
vt 0.5696999 0.4705991
vt 0.5260991 0.5064645
vt 0.5890388 0.5138926
vt 0.305226 0.9865825
vt 0.1915157 0.9935868
vt 0.305226 0.9962392
vt 0.1915157 0.989235
vt 0.5137646 0.5697894
vt 0.5406875 0.7214355
vt 0.6125942 0.5972151
vt 0.4745728 0.678003
vt 0.1941221 0.849257
vt 0.05844543 0.8747154
vt 0.1941221 0.8807847
vt 0.05844543 0.8553262
vt 0.09973611 0.1596946
vt 0.07849703 0.3122405
vt 0.1429431 0.2663685
vt 0.002 0.1907931
vt 0.1915157 0.989235
vt 0.07203081 0.9921491
vt 0.1915157 0.9935868
vt 0.07203081 0.9906726
vt 0.4745728 0.678003
vt 0.3983414 0.8184813
vt 0.5406875 0.7214355
vt 0.3983414 0.8184813
vt 0.4745728 0.678003
vt 0.3831135 0.7819188
vt 0.9154429 0.8553262
vt 0.7856691 0.8705163
vt 0.9154429 0.8747155
vt 0.7856691 0.8595253
vt 0.07849703 0.3122405
vt 0.2382205 0.3667952
vt 0.1429431 0.2663685
vt 0.2243691 0.403901
vt 0.4406975 0.910643
vt 0.3813627 0.9117555
vt 0.4406975 0.9121195
vt 0.3813627 0.911007
vt 0.3831135 0.7819188
vt 0.3007921 0.8344242
vt 0.3983414 0.8184813
vt 0.3007921 0.8344242
vt 0.3831135 0.7819188
vt 0.3170699 0.810637
vt 0.7856691 0.8595253
vt 0.6929674 0.8687928
vt 0.7856691 0.8705163
vt 0.6929674 0.8612487
vt 0.2243691 0.403901
vt 0.3052908 0.3930262
vt 0.2382205 0.3667952
vt 0.3224459 0.4161888
vt 0.8456978 0.8626191
vt 0.8077403 0.8655084
vt 0.8456978 0.8674225
vt 0.8077403 0.8645331
vt 0.0803624 0.02999687
vt 0.08384398 0.0666282
vt 0.1129099 0.02422931
vt 0.5643216 0.8996209
vt 0.5177117 0.9162971
vt 0.5643216 0.9231417
vt 0.5177117 0.9064655
vt 0.5696999 0.4705991
vt 0.4955396 0.4349109
vt 0.526169 0.4761944
vt 0.4955396 0.4349109
vt 0.5696999 0.4705991
vt 0.5282798 0.4394585
vt 0.3813627 0.911007
vt 0.2910131 0.9113813
vt 0.3813627 0.9117555
vt 0.2239844 0.8159654
vt 0.3007921 0.8344242
vt 0.3170699 0.810637
vt 0.3007921 0.8344242
vt 0.2239844 0.8159654
vt 0.2177719 0.8210604
vt 0.6929674 0.8612487
vt 0.6089236 0.8650208
vt 0.6929674 0.8687928
vt 0.3224459 0.4161888
vt 0.3985103 0.3948736
vt 0.3052908 0.3930262
vt 0.3985103 0.3948736
vt 0.3224459 0.4161888
vt 0.4049089 0.3997329
vn 0 1 5.021698E-07
vn 0 1 5.021698E-07
vn 0 1 5.021697E-07
vn 0 1 5.021697E-07
vn 0 -1 0
vn 0 -1 0
vn 0 -1 0
vn 0 -1 0
vn 0 0 -1
vn 0 0 -1
vn 0 0 -1
vn 0 0 -1
vn 1 0 0
vn 1 0 0
vn 1 0 0
vn 1 0 0
vn 0 0 1
vn 0 0 1
vn 0 0 1
vn 0 0 1
vn -1 0 0
vn -1 0 0
vn -1 0 0
vn -1 0 0
vn 0 -0.1724588 0.9850167
vn 0 -0.1724588 0.9850167
vn 0 -0.1724588 0.9850167
vn 0 -0.1724589 0.9850167
vn 0.9877543 0.1560173 0
vn 0.9877543 0.1560173 0
vn 0.9877543 0.1560173 0
vn 0.9877543 0.1560173 0
vn 0 -0.1724586 -0.9850167
vn 0 -0.1724586 -0.9850167
vn 0 -0.1724586 -0.9850167
vn 0 -0.1724586 -0.9850167
vn -0.0289992 -0.9995795 0
vn -0.0289992 -0.9995795 0
vn -0.0289992 -0.9995795 0
vn -0.02899918 -0.9995795 0
vn 0.2676887 -0.266371 -0.9259531
vn 0.2676888 -0.266371 -0.9259531
vn 0.2676887 -0.266371 -0.9259531
vn 0.0623363 -0.1747076 -0.982645
vn 0.0623363 -0.1747076 -0.9826452
vn 0.0623363 -0.1747076 -0.982645
vn -0.8566689 0.5158666 0
vn -0.8566689 0.5158666 0
vn -0.8566689 0.5158666 0
vn -0.8566689 0.5158668 2.590527E-07
vn 0.06233633 -0.1747075 0.9826452
vn 0.06233633 -0.1747076 0.9826452
vn 0.06233633 -0.1747076 0.9826452
vn 0.2676914 -0.2663721 0.9259521
vn 0.2676915 -0.2663721 0.9259521
vn 0.2676915 -0.2663721 0.9259521
vn -0.1833556 -0.9830466 0
vn -0.1833556 -0.9830466 0
vn -0.1833556 -0.9830466 0
vn -0.1833556 -0.9830466 0
vn -0.1060837 -0.2114283 0.9716195
vn -0.1060837 -0.2114283 0.9716195
vn -0.1060837 -0.2114283 0.9716195
vn -0.2937678 -0.1244153 0.9477454
vn -0.2937678 -0.1244153 0.9477454
vn -0.2937678 -0.1244153 0.9477454
vn 0.9628995 0.2698604 0
vn 0.9628995 0.2698604 0
vn 0.9628995 0.2698604 0
vn 0.9628995 0.2698604 1.355157E-07
vn -0.293767 -0.1244154 -0.9477456
vn -0.2937671 -0.1244154 -0.9477456
vn -0.2937671 -0.1244154 -0.9477456
vn -0.1060835 -0.211428 -0.9716195
vn -0.1060835 -0.211428 -0.9716195
vn -0.1060835 -0.211428 -0.9716195
vn -0.2286133 -0.9735173 3.183887E-07
vn -0.2286132 -0.9735173 3.183887E-07
vn -0.2286133 -0.9735173 3.183887E-07
vn -0.2286133 -0.9735173 0
vn 0.01660549 -0.2244003 -0.9743556
vn 0.01660549 -0.2244003 -0.9743556
vn 0.01660549 -0.2244004 -0.9743556
vn -0.02409111 -0.1686946 -0.9853739
vn -0.02409111 -0.1686946 -0.985374
vn -0.02409112 -0.1686946 -0.985374
vn -0.04056157 -0.2061878 -0.9776714
vn -0.04056156 -0.2061877 -0.9776714
vn 0.5647048 0.825293 0
vn 0.5647048 0.825293 0
vn 0.5647048 0.825293 0
vn 0.5647049 0.825293 0
vn 0.01660544 -0.2244004 0.9743556
vn 0.01660544 -0.2244004 0.9743556
vn 0.01660544 -0.2244004 0.9743556
vn -0.02409126 -0.1686946 0.985374
vn -0.02409127 -0.1686946 0.985374
vn -0.02409127 -0.1686946 0.985374
vn 0.04057747 -0.9991763 0
vn 0.04057747 -0.9991763 0
vn 0.04057747 -0.9991763 0
vn 0.04057746 -0.9991763 0
vn -0.01931914 -0.1078211 0.9939826
vn -0.01931914 -0.1078211 0.9939826
vn -0.01931914 -0.1078211 0.9939826
vn -0.02073569 -0.1105603 0.9936531
vn -0.2546268 0.9670395 0
vn -0.2546268 0.9670395 0
vn -0.2546268 0.9670395 0
vn -0.2546268 0.9670395 0
vn -0.02073566 -0.1105604 -0.9936531
vn -0.02073566 -0.1105604 -0.9936531
vn -0.02073566 -0.1105604 -0.9936531
vn -0.01931912 -0.1078213 -0.9939826
vn 0.3610332 -0.932553 0
vn 0.3610332 -0.932553 0
vn 0.3610331 -0.932553 0
vn 0.3610331 -0.932553 0
vn 0.03359804 -0.08848947 0.9955103
vn 0.03359804 -0.08848947 0.9955103
vn 0.03359804 -0.08848947 0.9955103
vn 0.0387783 -0.13174 0.9905255
vn 0.0387783 -0.13174 0.9905255
vn 0.0387783 -0.13174 0.9905255
vn -0.6198405 0.7847278 0
vn -0.6198405 0.7847278 0
vn -0.6198405 0.7847278 0
vn -0.6198406 0.7847278 3.364876E-07
vn 0.02356209 -0.09259278 -0.9954253
vn 0.02356209 -0.09259278 -0.9954253
vn 0.02356209 -0.09259278 -0.9954253
vn 0.05480034 -0.1151625 -0.9918339
vn 0.8472041 -0.5312676 0
vn 0.8472041 -0.5312676 0
vn 0.8472041 -0.5312676 0
vn 0.8472041 -0.5312676 0
vn 0.1062519 -0.06130292 0.9924477
vn 0.1062519 -0.06130292 0.9924477
vn 0.1062519 -0.06130292 0.9924477
vn 0.1415268 -0.09309646 0.9855472
vn 0.1415268 -0.09309647 0.9855472
vn 0.1415268 -0.09309646 0.9855472
vn -0.9157153 0.4018277 1.723018E-07
vn -0.9157153 0.4018277 1.723018E-07
vn -0.9157153 0.4018277 1.723018E-07
vn -0.9157153 0.4018278 -6.694009E-07
vn 0.1004827 -0.06738998 -0.992654
vn 0.1004827 -0.06738999 -0.992654
vn 0.1004827 -0.06738997 -0.992654
vn 0.1374683 -0.07493069 -0.9876679
vn -0.5124508 -0.8587165 2.808432E-07
vn -0.5124508 -0.8587167 2.808432E-07
vn -0.5124508 -0.8587167 2.808432E-07
vn -0.5124508 -0.8587165 0
vn -0.04701636 -0.1498727 -0.9875869
vn -0.04701636 -0.1498727 -0.9875869
vn -0.04701636 -0.1498727 -0.9875869
vn 0.8232209 0.5677211 0
vn 0.823221 0.5677211 0
vn 0.8232209 0.5677211 0
vn 0.8232209 0.5677211 0
vn -0.07438344 -0.1950392 0.9779708
vn -0.07438342 -0.1950392 0.9779708
vn -0.07438342 -0.1950392 0.9779708
vn 0.07075996 -0.131444 0.9887949
vn 0.07075995 -0.131444 0.9887949
vn 0.07075995 -0.131444 0.9887949
vn 0.9768579 -0.2138894 0
vn 0.9768579 -0.2138894 0
vn 0.9768579 -0.2138894 0
vn 0.1275423 -0.03126742 0.9913402
vn 0.1275423 -0.03126742 0.9913402
vn 0.1275423 -0.03126742 0.9913402
vn 0.029034 -0.03506719 0.9989631
vn 0.029034 -0.03506719 0.9989631
vn 0.029034 -0.03506719 0.9989631
vn -0.9997488 0.02241678 0
vn -0.9997488 0.02241678 0
vn -0.9997488 0.02241678 0
vn 0.1275419 -0.03126763 -0.9913402
vn 0.1275419 -0.03126763 -0.9913402
vn 0.1275419 -0.03126763 -0.9913402
vn 0.02903289 -0.03506742 -0.9989631
vn 0.0290329 -0.03506742 -0.9989631
vn 0.02903289 -0.03506742 -0.9989631
f 3/3/3 2/2/2 1/1/1
f 4/4/4 1/1/1 2/2/2
f 7/7/7 6/6/6 5/5/5
f 8/8/8 5/5/5 6/6/6
f 11/11/11 10/10/10 9/9/9
f 12/12/12 9/9/9 10/10/10
f 15/15/15 14/14/14 13/13/13
f 16/16/16 13/13/13 14/14/14
f 19/19/19 18/18/18 17/17/17
f 20/20/20 17/17/17 18/18/18
f 23/23/23 22/22/22 21/21/21
f 24/24/24 21/21/21 22/22/22
f 27/27/27 26/26/26 25/25/25
f 28/28/28 25/25/25 26/26/26
f 31/31/31 30/30/30 29/29/29
f 32/32/32 29/29/29 30/30/30
f 35/35/35 34/34/34 33/33/33
f 36/36/36 33/33/33 34/34/34
f 39/39/39 38/38/38 37/37/37
f 40/40/40 37/37/37 38/38/38
f 43/43/43 42/42/42 41/41/41
f 46/46/46 45/45/45 44/44/44
f 49/49/49 48/48/48 47/47/47
f 50/50/50 47/47/47 48/48/48
f 53/53/53 52/52/52 51/51/51
f 56/56/56 55/55/55 54/54/54
f 59/59/59 58/58/58 57/57/57
f 60/60/60 57/57/57 58/58/58
f 63/63/63 62/62/62 61/61/61
f 66/66/66 65/65/65 64/64/64
f 69/69/69 68/68/68 67/67/67
f 70/70/70 67/67/67 68/68/68
f 73/73/73 72/72/72 71/71/71
f 76/76/76 75/75/75 74/74/74
f 79/79/79 78/78/78 77/77/77
f 80/80/80 77/77/77 78/78/78
f 83/83/83 82/82/82 81/81/81
f 86/86/86 85/85/85 84/84/84
f 85/85/85 88/88/88 87/87/87
f 91/91/91 90/90/90 89/89/89
f 92/92/92 89/89/89 90/90/90
f 95/95/95 94/94/94 93/93/93
f 98/98/98 97/97/97 96/96/96
f 101/101/101 100/100/100 99/99/99
f 102/102/102 99/99/99 100/100/100
f 105/105/105 104/104/104 103/103/103
f 106/106/106 103/103/103 104/104/104
f 109/109/109 108/108/108 107/107/107
f 110/110/110 107/107/107 108/108/108
f 113/113/113 112/112/112 111/111/111
f 114/114/114 111/111/111 112/112/112
f 117/117/117 116/116/116 115/115/115
f 118/118/118 115/115/115 116/116/116
f 121/121/121 120/120/120 119/119/119
f 124/124/124 123/123/123 122/122/122
f 127/127/127 126/126/126 125/125/125
f 128/128/128 125/125/125 126/126/126
f 131/131/131 130/130/130 129/129/129
f 132/132/132 129/129/129 130/130/130
f 135/135/135 134/134/134 133/133/133
f 136/136/136 133/133/133 134/134/134
f 139/139/139 138/138/138 137/137/137
f 142/142/142 141/141/141 140/140/140
f 145/145/145 144/144/144 143/143/143
f 146/146/146 143/143/143 144/144/144
f 149/149/149 148/148/148 147/147/147
f 150/150/150 147/147/147 148/148/148
f 153/153/153 152/152/152 151/151/151
f 154/154/154 151/151/151 152/152/152
f 157/157/157 156/156/156 155/155/155
f 160/160/160 159/159/159 158/158/158
f 161/161/161 158/158/158 159/159/159
f 164/164/164 163/163/163 162/162/162
f 167/167/167 166/166/166 165/165/165
f 170/170/170 169/169/169 168/168/168
f 173/173/173 172/172/172 171/171/171
f 176/176/176 175/175/175 174/174/174
f 179/179/179 178/178/178 177/177/177
f 182/182/182 181/181/181 180/180/180
f 185/185/185 184/184/184 183/183/183
